<?xml version="1.0" standalone="no"?><!DOCTYPE svg PUBLIC "-//W3C//DTD SVG 1.1//EN" "http://www.w3.org/Graphics/SVG/1.1/DTD/svg11.dtd"><svg t="1497503935384" class="icon" style="" viewBox="0 0 1024 1024" version="1.1" xmlns="http://www.w3.org/2000/svg" p-id="1027" xmlns:xlink="http://www.w3.org/1999/xlink" width="48" height="48"><defs><style type="text/css"></style></defs><path d="M512.328 62.562l-389.719 225-0.319 449.438 389.382 224.438 389.708-225 0.329-449.438zM655.588 231.687l32.408 18.675c-3.417 5.010-9.098 8.257-15.538 8.257-10.356 0-18.75-8.394-18.75-18.75 0-2.977 0.694-5.791 1.928-8.291zM549.5 170.553l73.575 42.384c-4.224 7.705-6.709 16.882-6.709 26.64 0 31.066 25.184 56.25 56.25 56.25 20.141 0 37.808-10.585 47.746-26.497l68.903 39.399-149.766 86.494-90-49.978zM474.5 171.003v174.431l-89.277 49.689-149.438-86.251zM197.554 373.344l145.809 84.188-0.113 108.486-145.903 84.254zM370.551 793.523l-32.456-18.751c3.233-5.914 9.41-9.858 16.508-9.858 10.356 0 18.75 8.394 18.75 18.75 0 3.65-1.042 7.056-2.847 9.937zM478.25 855.602l-75.216-43.35c5.254-8.395 8.371-18.595 8.371-29.524 0-31.066-25.184-56.25-56.25-56.25-21.311 0-39.855 11.851-49.398 29.323l-70.994-40.544 149.738-86.466 93.75 52.042zM418.25 561.743l0.076-99.253 93.816-52.178 93.609 51.947-0.076 99.253-93.844 52.18zM553.25 850.83v-174.375l86.251-47.973 149.419 86.251zM826.42 693.116l-0.628 0.357 0.628-1.078zM826.42 649.831l-145.81-84.187 0.084-107.626 145.931-84.253z" p-id="1028" class="selected" fill="#ffffff"></path></svg>